<svg width="538" height="351" viewBox="0 0 538 351" fill="none" xmlns="http://www.w3.org/2000/svg">
    <path opacity="0.1" d="M298.171 64.5025C265.27 63.358 233.938 52.7493 204.033 41.1433C174.127 29.5373 144.436 16.6777 112.343 10.528C91.6897 6.5723 68.0695 6.01669 51.429 17.0766C35.416 27.7185 30.2383 46.0915 27.457 63.1396C25.365 75.9612 24.1289 89.4619 29.8675 101.472C33.8517 109.806 40.9216 116.815 45.8092 124.798C62.8206 152.583 50.7966 186.845 32.3588 213.975C23.7152 226.701 13.6881 238.839 7.03185 252.387C0.375611 265.935 -2.72905 281.454 3.10942 295.273C8.8956 308.973 22.6883 319.259 37.6268 326.496C67.9697 341.194 103.714 345.401 138.592 347.78C215.771 353.056 293.359 350.772 370.743 348.488C399.384 347.638 428.148 346.783 456.323 342.357C471.97 339.902 488.121 336.003 499.479 326.591C513.9 314.644 517.47 294.414 507.809 279.436C491.577 254.329 446.767 248.066 435.442 221.088C429.228 206.253 435.608 189.746 444.67 175.975C464.106 146.442 496.688 120.533 498.395 86.7789C499.574 63.5954 483.909 40.374 459.694 29.4044C434.31 17.9076 399.108 19.356 380.38 38.389C361.106 57.9682 327.221 65.5092 298.171 64.5025Z" fill="#F57858"/>
    <path d="M64.4229 211.116C63.7335 208.832 61.4323 206.842 59.1074 207.378C57.5622 207.73 55.7175 209.003 54.6667 207.811C54.4389 207.504 54.2653 207.16 54.1533 206.794C53.6318 205.492 52.7412 204.37 51.5906 203.565C50.9222 203.038 50.0885 202.764 49.2372 202.791C47.8108 202.929 46.8171 204.292 46.3845 205.64C45.9518 206.989 45.8425 208.49 45.2339 209.762C44.2402 211.876 41.9058 213.205 39.5618 213.272C38.3875 213.27 37.2254 213.033 36.1448 212.573C35.0642 212.114 34.0871 211.442 33.2717 210.598C31.8168 209.174 30.4903 207.141 28.4412 207.079C27.4285 207.051 26.4823 207.554 25.4886 207.739C22.7548 208.309 20.1018 206.733 17.4964 205.716C15.0975 204.78 12.5455 204.297 9.9701 204.292C9.32137 204.258 8.67288 204.363 8.06832 204.6C6.37573 205.379 6.07145 207.602 5.99538 209.463C7.38368 211.234 10.7498 210.498 11.8481 212.479C12.1999 213.139 12.1809 213.903 12.257 214.663C12.5375 217.465 14.3062 219.958 16.536 221.682C18.7658 223.406 21.4379 224.46 24.1051 225.376C25.7597 225.941 27.4713 226.488 28.8596 227.584C30.2479 228.681 31.1845 230.476 30.7613 232.172C30.1813 234.461 27.4617 235.496 25.0988 235.496C23.3587 235.496 21.4997 235.187 19.9687 236.004C18.3332 236.873 17.544 238.853 17.5915 240.71C17.639 242.567 18.3284 244.324 19.0178 246.038L20.7104 250.222C20.8995 250.783 21.1931 251.303 21.5757 251.756C22.0367 252.189 22.5914 252.511 23.197 252.696C24.6018 253.167 26.0631 253.45 27.5426 253.536C29.7391 253.665 32.1734 253.432 33.8945 254.8C36.3431 256.747 35.8391 260.674 37.5792 263.271C38.7726 265.066 40.9406 266.021 43.0849 266.258C45.2292 266.496 47.3877 266.106 49.5082 265.722C53.7872 264.938 58.185 264.126 62.0504 262.084L62.9347 227.39C63.0061 224.541 62.8016 221.354 63.6146 218.619C64.3611 216.088 65.2454 213.842 64.4229 211.116Z" fill="#F86D70"/>
    <path d="M57.6811 237.965L58.2278 237.59C56.4021 234.926 53.578 233.231 50.8489 231.592C49.7554 230.932 48.6191 230.253 47.5731 229.522C46.0491 228.414 44.5843 227.227 43.1847 225.965C42.6237 225.49 42.0484 224.977 41.4684 224.493C31.5105 216.184 19.4115 210.844 6.55641 209.083L6.47083 209.739C19.2018 211.48 31.1842 216.768 41.0452 224.996C41.6205 225.471 42.1958 225.979 42.7568 226.464C44.1733 227.74 45.6555 228.942 47.1975 230.063C48.2625 230.804 49.4083 231.488 50.5256 232.157C53.1786 233.758 55.9362 235.42 57.6811 237.965Z" fill="#CE6270"/>
    <path d="M56.6446 249.581L57.0297 249.044C53.5754 246.572 49.5299 245.052 45.3005 244.637C43.6288 244.504 41.9514 244.458 40.275 244.5C37.8169 244.5 35.2781 244.533 32.8771 243.963C31.8562 243.7 30.85 243.383 29.8627 243.013C28.4975 242.496 27.0873 242.107 25.6503 241.85C24.772 241.734 23.8878 241.667 23.002 241.65C21.2191 241.584 19.5361 241.517 18.0622 240.701L17.7484 241.28C19.3554 242.154 21.1954 242.23 22.9783 242.291C23.84 242.309 24.7002 242.372 25.5552 242.481C26.9503 242.735 28.319 243.117 29.644 243.621C30.654 243.99 31.6823 244.307 32.7249 244.571C35.2067 245.155 37.7837 245.141 40.2797 245.122C41.9324 245.082 43.586 245.128 45.2339 245.259C49.3522 245.67 53.2887 247.161 56.6446 249.581Z" fill="#CE6270"/>
    <path d="M54.9996 237.433L55.5416 237.053C52.0364 231.979 50.0975 225.989 49.9646 219.825C49.8647 214.554 51.1056 209.335 52.299 204.287L51.6572 204.135C50.4495 209.221 49.2039 214.483 49.2799 219.839C49.4223 226.136 51.4109 232.254 54.9996 237.433Z" fill="#CE6270"/>
    <path d="M31.446 220.922C32.7677 220.922 34.0704 220.832 35.3018 220.746L35.2543 220.086C32.4682 220.276 29.316 220.495 26.4823 219.611C26.2494 219.54 26.0069 219.459 25.7739 219.379C24.7802 219.041 23.7438 218.69 22.6645 218.856L22.7691 219.512C23.6867 219.364 24.5996 219.678 25.56 219.986C25.8024 220.067 26.0354 220.153 26.2874 220.224C27.9621 220.714 29.7011 220.949 31.446 220.922Z" fill="#CE6270"/>
    <path d="M19.7025 246.375C20.4774 245.677 21.7041 245.706 22.7881 245.729C25.2509 245.782 28.9023 245.696 32.1924 244.305L31.9404 243.697C28.7645 245.017 25.2034 245.122 22.8024 245.05C21.6565 245.05 20.2302 244.993 19.2603 245.862L19.7025 246.375Z" fill="#CE6270"/>
    <path d="M36.034 258.162C38.3352 257.24 40.8408 256.846 43.2608 256.466C45.5078 256.038 47.7912 255.83 50.0787 255.844C52.336 255.863 54.5387 256.54 56.4164 257.791L56.8015 257.255C54.8186 255.926 52.4899 255.207 50.1025 255.184C47.7736 255.169 45.4487 255.381 43.1609 255.816C40.7029 256.2 38.1593 256.599 35.7868 257.549L36.034 258.162Z" fill="#CE6270"/>
    <path d="M53.9536 248.788C53.9536 256.937 61.5607 286.726 71.1124 295.155C80.6641 303.584 92.2127 302.458 92.2127 302.458C100.794 310.056 107.284 310.531 110.327 310.189C110.977 310.129 111.616 309.986 112.229 309.762C112.229 309.762 114.359 310.531 116.903 311.291C120.121 312.241 124.034 313.19 125.114 312.573C127.082 311.452 129.616 312.573 129.616 312.573C130.753 315.262 132.522 317.637 134.774 319.496C137.027 321.355 139.695 322.644 142.553 323.253C147.621 329.996 155.495 329.716 155.495 329.716C165.06 335.334 168.721 331.141 168.721 331.141C174.902 333.387 185.6 330.015 185.6 330.015C199.949 325.798 213.732 296.859 213.732 296.859C213.732 296.859 217.388 288.711 219.642 286.46C221.895 284.209 225.266 278.031 226.393 274.659C227.52 271.287 229.208 259.487 229.208 259.487C234.832 248.807 233.425 231.388 233.425 231.388C224.434 188.099 188.424 180.249 188.424 180.249C188.353 179.446 187.625 178.715 186.593 178.074C183.674 176.265 178.297 175.191 178.297 175.191C177.455 173.767 170.69 170.134 170.69 170.134C170.69 170.134 134.96 171.82 130.177 170.134C125.394 168.448 116.389 173.786 116.389 173.786C112.11 172.428 103.219 176.322 98.17 178.843C95.9307 179.964 94.4425 180.814 94.4425 180.814C93.4916 181.13 92.5677 181.472 91.6707 181.84C48.8235 198.598 53.9536 240.81 53.9536 248.788Z" fill="#F57858"/>
    <path opacity="0.1" d="M214.802 258.337C214.978 260.265 215.149 262.241 214.654 264.112C214.26 265.589 213.456 267.056 213.76 268.552C212.367 264.235 212.809 259.582 212.577 255.056C212.101 245.696 208.374 236.379 209.286 226.962C211.721 230.875 212.277 237.457 212.99 242.106C213.803 247.486 214.298 252.905 214.802 258.337Z" fill="black"/>
    <path opacity="0.1" d="M79.4137 232.889C78.5674 217.132 101.917 190.064 105.292 186.973C108.668 183.882 114.578 189.642 114.578 189.642C114.578 189.642 102.482 215.76 102.216 219.986C101.95 224.213 103.909 223.078 103.909 223.078C106.576 200.037 116.846 190.345 116.846 190.345C123.597 188.92 131.052 190.482 131.052 190.482L128.242 194.699L130.771 194.134L129.787 201.585H130.491C130.491 201.585 131.917 200.882 132.868 195.26C133.819 189.637 140.889 192.448 140.889 192.448L143.68 195.402C146.057 190.482 150.735 193.294 150.735 193.294C150.735 193.294 151.154 194.134 153.968 198.109C156.783 202.084 157.905 215.494 157.905 215.494C158.889 216.615 160.282 215.494 160.282 215.494C160.282 215.494 156.346 196.499 155.081 193.854C153.816 191.209 164.647 192.168 164.647 192.168C164.647 192.168 170.129 202.848 170.828 202.283C171.527 201.718 167.732 192.596 167.732 192.596C169.278 187.396 175.606 194.424 175.606 194.424C175.606 194.424 183.213 208.893 183.765 208.613C184.316 208.333 177.997 195.825 177.997 195.825L177.013 193.721C177.013 193.721 171.103 190.91 178.563 188.098C186.023 185.287 197.804 200.108 197.971 200.322C195.437 193.156 184.891 187.676 184.891 187.676C184.891 187.676 183.907 187.115 184.891 185.43C185.875 183.744 188.424 180.249 188.424 180.249C188.353 179.446 187.625 178.715 186.593 178.074C186.126 178.594 185.747 179.188 185.471 179.831C184.711 181.797 181.815 184.888 181.815 184.888L179.985 183.203L178.863 183.905L179.001 186.28C176.752 185.715 172.672 188.654 172.672 188.654L167.609 185.705L167.043 186.688L169.292 189.062C169.216 188.996 168.132 188.136 167.043 189.628C165.954 191.119 161.552 186.422 161.552 186.422L160.705 186.845L162.674 189.371C160.848 189.233 153.108 191.342 153.108 191.342L151.843 189.091H150.017V191.342L134.803 189.091L134.099 186.845L131.427 189.371L121.158 187.125C121.158 187.125 122.004 183.193 116.66 186.142C111.316 189.091 109.486 182.77 108.639 183.051C107.793 183.331 105.406 184.314 105.406 184.314C105.406 184.314 104.56 182.49 103.438 182.633C102.316 182.775 99.4965 181.085 99.4965 181.085L98.189 178.824C95.9497 179.945 94.4616 180.795 94.4616 180.795C93.5107 181.111 92.5867 181.453 91.6897 181.821C91.8137 182.001 91.9744 182.152 92.1612 182.266C92.348 182.38 92.5567 182.453 92.7737 182.481C95.1509 182.623 102.34 183.905 102.34 183.905L103.043 185.871C83.493 197.112 77.8447 232.913 77.8447 232.913L79.4137 232.889Z" fill="black"/>
    <path opacity="0.1" d="M101.355 269.203C101.376 273.02 101.9 276.819 102.915 280.5C103.447 282.304 104.137 284.061 104.684 285.861C106.4 291.512 106.719 297.662 109.576 302.833C110.351 304.258 111.335 305.683 111.302 307.259C111.215 308.299 110.881 309.304 110.327 310.189C110.977 310.129 111.616 309.986 112.229 309.762C112.229 309.762 114.359 310.531 116.903 311.291C116.004 308.874 114.813 306.576 113.356 304.448C112.568 303.409 111.868 302.307 111.264 301.152C110.897 300.295 110.603 299.409 110.384 298.502C108.058 289.955 105.731 281.418 103.405 272.892C102.536 270.153 102.213 267.27 102.454 264.406C102.492 263.015 103.119 260.132 102.207 259.05C101.104 259.848 101.479 262.374 101.432 263.609C101.355 265.475 101.317 267.341 101.355 269.203Z" fill="black"/>
    <path d="M126.017 164.502C126.22 166.199 126.572 167.876 127.068 169.512C128.123 173.515 127.657 180.23 132.545 181.412C139.201 183.027 146.437 183.454 153.284 183.511C155.128 183.511 157.016 183.487 158.742 182.846C157.278 181.936 156.016 180.736 155.035 179.319C154.054 177.903 153.374 176.301 153.036 174.612C152.794 173.344 152.746 172.052 152.561 170.78C152.238 168.667 151.496 166.648 150.978 164.573C150.425 162.208 150.036 159.807 149.813 157.388C149.038 150.201 148.672 142.976 148.715 135.748C148.715 133.108 148.824 130.372 149.946 127.979L150.122 127.618C150.401 127.131 150.6 126.602 150.712 126.051C150.754 125.518 150.67 124.982 150.467 124.487C150.264 123.992 149.947 123.552 149.542 123.202C148.72 122.505 147.773 121.97 146.751 121.625C144.25 120.652 141.431 119.811 139.976 117.551C139.501 116.834 139.134 115.932 138.321 115.675C138.08 115.605 137.826 115.592 137.579 115.635C137.332 115.679 137.098 115.779 136.895 115.927C136.372 116.295 135.925 116.761 135.578 117.299C132.369 121.989 130.185 127.301 129.169 132.889C128.808 134.893 128.599 136.916 128.385 138.939L126.217 159.834C126.005 161.38 125.938 162.943 126.017 164.502Z" fill="#322C35"/>
    <path opacity="0.1" d="M136.89 115.908C136.966 118.282 137.841 121.174 138.017 122.556C138.055 123.167 138.227 123.762 138.521 124.299C139.577 125.928 142.12 125.353 143.86 126.198C144.412 126.474 144.883 126.896 145.444 127.148C146.159 127.415 146.92 127.539 147.683 127.514L150.112 127.585C150.391 127.097 150.59 126.568 150.702 126.018C150.745 125.485 150.661 124.949 150.458 124.454C150.254 123.959 149.937 123.519 149.532 123.169C148.71 122.472 147.763 121.937 146.742 121.592C144.241 120.619 141.421 119.778 139.966 117.518C139.491 116.801 139.125 115.898 138.312 115.642C138.07 115.575 137.817 115.564 137.57 115.61C137.324 115.656 137.091 115.758 136.89 115.908Z" fill="black"/>
    <path opacity="0.1" d="M145.325 131.071L144.274 134.694C143.123 138.659 141.968 142.643 141.469 146.713C141.12 146.379 140.865 145.961 140.728 145.499C140.592 145.036 140.578 144.547 140.689 144.077C140.841 143.128 141.245 142.254 141.398 141.323C141.616 140.027 141.35 138.711 141.455 137.405C141.583 135.796 142.268 134.266 142.948 132.766C143.323 131.93 144.531 127.86 145.425 127.651C147.169 127.253 145.472 130.558 145.325 131.071Z" fill="black"/>
    <path opacity="0.1" d="M139.919 130.249C139.786 130.919 139.748 131.602 139.681 132.282C139.413 134.951 138.721 137.56 137.632 140.013C137.639 138.324 137.787 136.638 138.074 134.974L138.611 131.265C138.745 130.316 138.816 126.621 140.228 126.517C141.916 126.417 140.062 129.518 139.919 130.249Z" fill="black"/>
    <path opacity="0.1" d="M132.041 144.975C131.645 147.048 131.387 149.146 131.266 151.253C131.099 154.197 131.228 157.16 130.89 160.095C130.02 155.394 129.15 150.597 129.939 145.882C130.184 144.528 130.501 143.189 130.89 141.869C132.225 136.965 133.66 132.084 135.198 127.224C135.583 126.008 136.187 124.27 137.732 123.9C139.134 125.377 137.989 126.811 137.342 128.425C136.615 130.244 135.916 132.073 135.231 133.91C133.877 137.509 132.81 141.208 132.041 144.975Z" fill="black"/>
    <path opacity="0.1" d="M142.463 175.377C142.457 177.041 142.674 178.699 143.109 180.306C143.585 181.629 144.224 182.887 145.011 184.053C143.907 183.944 142.815 183.744 141.745 183.454C141.503 183.399 141.281 183.275 141.108 183.098C140.975 182.913 140.893 182.697 140.87 182.471C140.004 177.988 139.231 173.487 138.55 168.966C138.308 167.66 138.217 166.331 138.279 165.005C138.402 163.552 138.944 161.496 140.038 160.446C141.711 158.841 141.902 161.254 141.968 162.693C142.139 166.952 142.291 171.155 142.463 175.377Z" fill="black"/>
    <path opacity="0.1" d="M134.409 179.47C134.095 179.066 133.572 178.872 133.248 178.477C132.773 177.908 132.844 177.091 132.806 176.355C132.778 175.771 131.071 169.944 133.049 170.699C134.038 171.074 134.299 178.349 134.409 179.47Z" fill="black"/>
    <path d="M174.636 140.07L161.419 144.434C160.296 144.762 159.211 145.206 158.181 145.759C157.339 146.278 156.554 146.886 155.842 147.573C151.415 151.652 147.959 156.975 146.941 162.902C145.81 169.488 147.721 176.174 149.608 182.585C149.683 182.964 149.863 183.315 150.127 183.597C150.602 184.005 151.282 183.929 151.886 183.82C154.244 183.402 156.58 182.876 158.894 182.243C160.136 181.936 161.345 181.506 162.503 180.961C163.652 180.353 164.724 179.61 165.698 178.748C172.915 172.603 177.037 163.671 180.831 155.004C181.489 153.613 182.015 152.163 182.405 150.673C183.07 147.734 182.642 144.671 182.215 141.684C181.982 140.089 182.086 137.567 181.264 136.214C179.363 137.966 177.1 139.283 174.636 140.07Z" fill="#F86D70"/>
    <path d="M149.095 183.165L154.867 178.112C158.808 174.664 162.883 171.098 166.335 167.023C171.85 160.522 175.663 152.924 178.958 145.683C180.332 142.667 181.568 139.699 181.568 136.579H181.069C181.069 139.604 179.856 142.515 178.506 145.478C175.226 152.687 171.431 160.247 165.959 166.705C162.531 170.747 158.466 174.303 154.548 177.741L148.776 182.789L149.095 183.165Z" fill="#CE6270"/>
    <path d="M164.699 168.524L166.534 161.99C166.763 161.182 167.01 160.342 167.162 159.497C167.388 158.216 167.499 156.917 167.495 155.617C167.532 151.43 166.908 147.263 165.645 143.27L165.17 143.422C166.419 147.367 167.035 151.484 166.996 155.622C167.003 156.895 166.895 158.167 166.672 159.421C166.515 160.242 166.282 161.069 166.059 161.871L164.219 168.377L164.699 168.524Z" fill="#CE6270"/>
    <path d="M200.153 205.417C202.307 208.874 204.789 212.141 206.543 215.817C208.298 219.493 209.286 223.719 208.236 227.651C207.442 230.624 205.559 233.174 203.657 235.596C202.213 237.48 200.67 239.287 199.036 241.009C195.888 244.248 192.18 246.988 189.584 250.682C186.988 254.377 185.704 259.496 187.982 263.39C183.118 262.44 179.024 259.007 176.214 254.923C173.405 250.839 171.721 246.114 170.095 241.432C168.745 237.562 167.4 233.535 167.794 229.451C168.308 224.123 171.764 219.45 175.958 216.116C180.151 212.783 185.086 210.546 189.836 208.043C191.624 207.094 193.43 206.092 194.743 204.562C195.798 203.332 195.869 201.039 197.053 200.156C198.342 201.428 199.155 203.817 200.153 205.417Z" fill="#F86D70"/>
    <path d="M187.131 262.977L187.425 262.578C184.81 260.636 184.045 257.122 183.489 253.688C182.894 250.037 182.319 246.328 181.782 242.671C180.94 238.845 181.271 234.853 182.733 231.217C184.159 226.644 185.562 222.57 187.963 219.008C189.023 217.499 190.169 216.051 191.395 214.673C192.479 213.405 193.606 212.089 194.586 210.693C196.326 208.209 198.232 204.434 197.405 200.545L196.93 200.645C197.719 204.363 195.874 208.005 194.186 210.408C193.235 211.785 192.104 213.091 191.025 214.354C189.788 215.748 188.631 217.21 187.559 218.733C185.124 222.351 183.722 226.459 182.272 231.08C180.792 234.788 180.461 238.854 181.321 242.752C181.858 246.413 182.433 250.122 183.028 253.774C183.574 257.302 184.373 260.926 187.131 262.977Z" fill="#CE6270"/>
    <path d="M181.016 239.247C183.1 235.712 185.856 232.618 189.128 230.139C190.397 229.189 191.766 228.301 193.093 227.451C195.327 226.027 197.643 224.531 199.559 222.612C202.299 219.866 204.143 216.354 204.846 212.54L204.37 212.455C203.686 216.163 201.896 219.577 199.235 222.252C197.334 224.127 195.066 225.576 192.85 227C191.519 227.855 190.14 228.738 188.857 229.707C185.514 232.234 182.699 235.389 180.57 238.996L181.016 239.247Z" fill="#CE6270"/>
    <path d="M185.452 223.648H185.928C185.875 222.313 185.043 221.25 184.235 220.219C183.574 219.374 182.89 218.5 182.671 217.498C182.538 216.584 182.59 215.652 182.823 214.758C183.018 213.718 183.218 212.65 182.913 211.61L182.438 211.747C182.709 212.697 182.528 213.647 182.338 214.668C182.091 215.626 182.039 216.624 182.186 217.602C182.429 218.718 183.137 219.635 183.845 220.528C184.658 221.515 185.405 222.475 185.452 223.648Z" fill="#CE6270"/>
    <path d="M182.766 248.702L183.132 248.37C181.937 247.04 180.581 245.862 179.096 244.865C178.739 244.628 178.368 244.39 178.012 244.167C176.742 243.369 175.425 242.538 174.55 241.318C173.937 240.389 173.457 239.379 173.124 238.317C173.067 238.16 173.005 238.003 172.948 237.842C171.816 234.797 170.32 231.9 168.493 229.213L168.08 229.489C169.887 232.15 171.366 235.02 172.482 238.036C172.544 238.193 172.601 238.345 172.658 238.511C173.003 239.617 173.502 240.669 174.141 241.636C175.092 242.909 176.428 243.768 177.736 244.594C178.092 244.818 178.459 245.069 178.81 245.283C180.264 246.257 181.593 247.405 182.766 248.702Z" fill="#CE6270"/>
    <path d="M198.594 274.687C197.405 274.307 196.692 273.12 195.931 272.142C194.305 270.095 192.004 268.737 189.845 267.26C187.687 265.783 185.566 264.041 184.578 261.623L188.262 260.066C188.974 262.899 190.695 265.375 193.102 267.032C195.066 268.457 197.381 268.618 199.373 269.739C200.8 270.565 200.524 270.029 199.849 271.672C199.739 271.962 198.399 274.626 198.594 274.687Z" fill="#8F7345"/>
    <path d="M173.78 156.339C176.229 155.68 178.375 154.197 179.856 152.141C180.26 151.576 180.617 150.958 180.959 150.365C181.639 149.197 182.276 148.09 183.27 147.283L182.956 146.898C181.891 147.762 181.202 148.959 180.531 150.118C180.201 150.713 179.841 151.292 179.452 151.851C178.04 153.814 175.993 155.23 173.656 155.859L173.78 156.339Z" fill="#CE6270"/>
    <path d="M161.77 174.911C162.567 174.932 163.362 174.814 164.119 174.565C164.761 174.315 165.373 173.997 165.945 173.615L171.821 169.915C172.734 169.341 173.676 168.747 174.645 168.253L174.422 167.812C173.428 168.32 172.477 168.918 171.569 169.498L165.693 173.192C165.151 173.562 164.57 173.872 163.962 174.118C163.207 174.361 162.415 174.467 161.623 174.432C160.537 174.416 159.456 174.271 158.404 173.999L158.281 174.474C159.368 174.757 160.485 174.907 161.609 174.921L161.77 174.911Z" fill="#CE6270"/>
    <path d="M123.673 298.612C126.896 307.387 131.613 316.021 139.258 321.406C140.741 322.45 142.325 323.362 143.684 324.564C145.368 326.059 146.756 328.025 148.867 328.838C150.978 329.65 153.36 329.113 155.366 330.053C156.859 330.751 157.9 332.147 159.279 333.05C160.459 333.795 161.835 334.169 163.231 334.124C164.626 334.079 165.975 333.617 167.105 332.798C167.713 332.323 168.284 331.758 169.035 331.625C169.786 331.492 170.599 331.872 171.355 332.152C173.818 333.05 176.538 332.75 179.138 332.437C184.021 331.858 189.085 331.212 193.264 328.638C196.744 326.477 199.316 323.139 201.632 319.763C204.685 315.308 207.434 310.653 209.862 305.83C212.781 300.027 215.244 293.174 212.714 287.191C212.191 285.951 211.469 284.817 210.998 283.539C210.514 282.064 210.195 280.54 210.047 278.995C208.973 271.121 207.194 263.172 203.072 256.381C198.95 249.59 192.104 244.072 184.202 243.175C178.568 242.538 172.82 244.238 167.233 243.279H167.186C164.499 242.804 161.927 241.736 159.208 241.479C155.138 241.095 152.171 243.882 148.558 245.207C144.944 246.532 141.426 248.36 139.496 251.779C139.111 252.458 138.806 253.204 138.445 253.878C138.216 254.338 137.942 254.773 137.627 255.179C136.738 256.3 135.459 257.036 134.38 257.981C129.431 262.326 129.687 269.962 127.372 276.131C125.637 280.733 122.304 284.84 121.914 289.741C121.686 292.747 122.622 295.753 123.673 298.612Z" fill="#F57858"/>
    <path opacity="0.1" d="M123.934 298.612C127.158 307.387 131.87 316.021 139.52 321.406C141.003 322.45 142.586 323.362 143.941 324.564C145.629 326.06 147.017 328.026 149.128 328.838C151.239 329.65 153.621 329.113 155.628 330.053C157.121 330.751 158.162 332.147 159.536 333.05C160.717 333.795 162.094 334.169 163.49 334.124C164.886 334.079 166.236 333.617 167.366 332.798C167.97 332.323 168.545 331.758 169.268 331.625C169.991 331.492 170.837 331.872 171.593 332.152C174.056 333.05 176.771 332.751 179.376 332.437C184.259 331.858 189.322 331.212 193.497 328.638C196.982 326.477 199.554 323.139 201.869 319.763C204.921 315.307 207.67 310.652 210.099 305.83C213.019 300.027 215.481 293.174 212.952 287.191C212.429 285.951 211.706 284.817 211.236 283.539C210.749 282.065 210.43 280.54 210.285 278.995C209.21 271.121 207.432 263.172 203.31 256.381C199.188 249.59 192.342 244.072 184.435 243.175C178.806 242.538 173.057 244.238 167.471 243.279H167.423C164.737 242.804 162.165 241.736 159.445 241.479C155.376 241.095 152.409 243.882 148.795 245.207C145.182 246.532 141.664 248.36 139.733 251.779C139.348 252.458 139.044 253.204 138.683 253.878C138.453 254.338 138.179 254.773 137.865 255.179C136.976 256.3 135.697 257.036 134.618 257.981C129.668 262.326 129.925 269.962 127.605 276.131C125.874 280.733 122.541 284.84 122.147 289.741C121.947 292.747 122.884 295.753 123.934 298.612Z" fill="black"/>
    <path opacity="0.1" d="M138.464 253.855C139.23 254.47 140.087 254.965 141.003 255.322C143.008 256.216 145.237 256.484 147.398 256.091C150.517 255.422 152.946 253.076 155.604 251.314C156.96 250.419 158.403 249.663 159.911 249.058C162.289 248.109 167.133 246.931 167.262 243.616C167.269 243.498 167.269 243.379 167.262 243.26H167.214C164.528 242.785 161.956 241.717 159.236 241.46C155.166 241.076 152.2 243.863 148.586 245.188C144.973 246.513 141.455 248.341 139.524 251.76C139.13 252.43 138.825 253.152 138.464 253.855Z" fill="black"/>
    <path d="M147.084 235.553C145.404 233.711 143.343 232.255 141.045 231.285C138.747 230.315 136.265 229.854 133.771 229.935C133.344 232.501 133.224 235.109 133.415 237.704C136.405 238.321 139.443 238.953 142.139 240.378C144.835 241.802 147.203 244.177 147.916 247.126C149.052 251.874 151.529 249.87 151.372 245.972C151.172 242.112 149.659 238.437 147.084 235.553Z" fill="#322C35"/>
    <path opacity="0.1" d="M196.345 261.709C200.001 267.963 201.879 275.086 203.305 282.19C203.866 284.76 204.247 287.366 204.446 289.988C204.922 298.061 202.459 306.01 200.025 313.732H197.51L198.123 298.061C198.356 292.134 198.598 286.16 197.586 280.315C195.71 269.63 189.881 260.041 181.254 253.451C180.384 252.791 179.443 252.112 179.039 251.077C176.852 245.521 186.446 250.996 187.639 251.87C191.185 254.519 194.148 257.868 196.345 261.709Z" fill="black"/>
    <path d="M182.519 269.768L192.456 283.634L185.709 285.196L182.519 280.286L180.094 281.302L178.031 278.895C178.031 278.895 182.704 271.829 182.519 269.768Z" fill="#322C35"/>
    <path d="M172.202 283.259L178.016 293.184L170.514 295.245C170.514 295.245 170.704 284.38 172.202 283.259Z" fill="#322C35"/>
    <path d="M155.699 273.154L161.509 281.302L159.821 282.319L157.011 288.639L152.861 289.252L150.26 287.761L155.699 273.154Z" fill="#322C35"/>
    <path d="M196.773 290.938L196.021 298.806H193.397L186.456 316.89H183.265L180.641 309.581L174.265 311.291L172.202 318.846L159.636 317.725L155.884 304.894L146.318 303.674V295.245L158.138 298.992L160.011 307.611L169.387 308.731L174.265 298.992L183.831 306.86L188.334 293.559L196.773 290.938Z" fill="#322C35"/>
    <path d="M264.752 106.059C265.094 109.184 267.975 111.696 270.091 114.35C272.207 117.005 273.51 120.723 270.909 123.093C270.039 123.886 268.845 124.403 267.838 125.082C266.271 126.104 265.129 127.658 264.622 129.457C264.115 131.256 264.278 133.177 265.08 134.865C267.191 139.333 273.115 142.719 273.044 147.482C273.044 149.173 272.207 150.783 271.403 152.35L266.625 161.729C265.303 164.307 263.967 166.952 263.801 169.716C263.686 171.189 263.995 172.664 264.693 173.967C265.391 175.269 266.447 176.345 267.738 177.067C260.654 176.953 252.999 175.044 249.252 170.286C247.198 167.669 246.595 164.521 245.981 161.477C245.135 157.279 244.079 152.896 240.699 149.605C239.368 148.304 237.718 147.231 236.42 145.892C234.777 144.247 233.779 142.068 233.605 139.751C233.254 133.459 239.663 127.903 239.52 121.606C239.43 117.38 236.392 113.567 235.241 109.435C233.867 104.43 235.365 99.1732 237.961 94.4862C238.339 93.7297 238.84 93.0412 239.444 92.4489C243.129 89.0583 254.796 86.4133 259.969 88.9016C262.65 90.198 265.199 93.1423 266.002 95.4787C267.305 99.0972 264.353 102.436 264.752 106.059Z" fill="#322C35"/>
    <path opacity="0.1" d="M267.723 177.058C266.269 177.034 264.817 176.933 263.373 176.754C262.232 175.985 261.316 174.928 260.718 173.689C260.12 172.451 259.861 171.077 259.969 169.707C260.135 166.929 261.471 164.293 262.788 161.719L267.576 152.35C268.38 150.783 269.193 149.173 269.216 147.482C269.288 142.734 263.359 139.329 261.253 134.865C260.45 133.177 260.287 131.256 260.794 129.457C261.301 127.658 262.444 126.104 264.01 125.082C265.018 124.403 266.212 123.886 267.082 123.093C269.682 120.718 268.38 117.005 266.264 114.35C264.148 111.696 261.253 109.184 260.92 106.059C260.52 102.436 263.473 99.0972 262.194 95.4501C261.371 93.1185 258.837 90.1695 256.156 88.8779C255.02 88.3746 253.806 88.071 252.566 87.9804C255.419 87.7524 258.138 87.9803 260.002 88.8779C262.684 90.1695 265.232 93.1185 266.036 95.4501C267.315 99.0972 264.362 102.436 264.761 106.059C265.104 109.184 267.985 111.696 270.101 114.35C272.216 117.005 273.519 120.723 270.918 123.093C270.048 123.886 268.855 124.403 267.847 125.082C266.281 126.104 265.138 127.658 264.631 129.457C264.124 131.256 264.287 133.177 265.089 134.865C267.2 139.329 273.125 142.719 273.053 147.482C273.053 149.173 272.216 150.783 271.413 152.35L266.625 161.729C265.303 164.302 263.967 166.952 263.801 169.716C263.686 171.186 263.995 172.658 264.69 173.959C265.385 175.259 266.437 176.334 267.723 177.058Z" fill="black"/>
    <path d="M204.427 158.039C207.357 179.272 212.566 200.128 219.965 220.248C220.336 221.25 220.707 222.252 221.092 223.254C221.667 222.95 222.242 222.65 222.813 222.342C239.652 213.187 253.33 199.166 262.056 182.115C262.627 180.994 263.188 179.798 263.131 178.539C263.069 177.115 262.223 175.856 261.41 174.683C261.02 174.118 260.63 173.548 260.235 172.988L256.598 167.736C253.717 163.576 250.834 159.414 247.95 155.251C245.824 152.188 243.647 148.964 242.915 145.355C242.818 144.892 242.75 144.425 242.71 143.954C242.406 140.554 243.88 137.648 246.419 135.515C246.956 135.069 247.883 135.079 247.95 134.323C247.997 133.744 246.124 132.528 245.72 132.191C244.118 130.793 242.384 129.552 240.542 128.487C237.518 126.82 233.976 125.856 230.582 126.498C229.481 126.667 228.444 127.121 227.572 127.813C226.098 129.076 225.618 131.104 224.895 132.904C223.213 137.039 219.967 140.347 215.862 142.111C212.534 143.536 208.597 143.982 206.206 146.67C203.576 149.652 203.866 154.131 204.427 158.039Z" fill="#F8BDC5"/>
    <path d="M457.707 282.789L460.645 287.063L465.499 290.33C465.537 290.33 466.422 290.496 467.739 290.705C471.842 291.351 480.153 292.604 480.153 292.604L486.68 291.959L489.419 291.688L493.223 289.005L498.12 282.798L492.738 275.381C490.827 275.608 488.894 275.566 486.994 275.257C484.916 274.954 482.927 274.209 481.161 273.073C476.216 269.749 466.127 267.066 466.127 267.066L464.701 267.488L457.978 282.247L457.707 282.789Z" fill="#F8BDC5"/>
    <path d="M345.63 262.877C345.506 265.726 346.405 268.538 347.299 271.268C351.663 272.394 356.218 270.713 360.697 269.967C363.003 269.582 365.29 269.44 367.529 270.057C370.857 270.983 373.52 273.462 376.149 275.723C385.529 283.824 396.545 290.249 408.593 293.155C422.452 296.479 437.695 294.988 450.547 301.162C451.749 294.992 453.363 288.91 455.377 282.955C454.144 282.687 452.93 282.343 451.74 281.924C450.346 281.437 448.978 280.879 447.642 280.253C442.202 277.741 437.082 274.355 431.476 272.109C428.006 270.713 424.378 269.772 420.788 268.723C408.849 265.243 397.267 260.643 386.195 254.985C383.509 253.608 380.78 252.136 377.784 251.746C375.169 251.39 372.521 251.865 369.93 252.335C368.241 252.652 366.554 252.968 364.871 253.285C360.973 253.992 357.074 254.709 353.171 255.403L352.453 255.54L352.186 255.597C348.302 256.424 345.839 258.029 345.63 262.877Z" fill="#F8BDC5"/>
    <path opacity="0.1" d="M352.205 255.574C352.544 257.086 353.167 258.52 354.041 259.8C354.321 260.27 354.746 260.637 355.253 260.845C355.901 260.968 356.572 260.868 357.155 260.56L366.25 256.97C367.084 256.576 367.99 256.358 368.913 256.329C370.405 256.39 371.656 257.43 372.759 258.437C378.212 263.395 383.428 268.884 390.122 271.981C392.995 273.221 395.967 274.216 399.008 274.953C409.111 277.679 419.357 280.177 429.812 280.652C437.12 280.999 444.694 280.414 451.749 281.915C444.727 279.479 438.465 274.901 431.51 272.099C428.039 270.703 424.411 269.763 420.822 268.713C408.883 265.234 397.3 260.634 386.228 254.975C383.542 253.598 380.813 252.126 377.818 251.737C375.203 251.38 372.554 251.855 369.963 252.325C364.377 253.342 358.795 254.377 353.204 255.369C352.866 255.441 352.538 255.502 352.205 255.574Z" fill="black"/>
    <path d="M351.568 248.227C351.625 250.668 351.768 253.209 352.486 255.517C352.835 256.681 353.364 257.783 354.055 258.784C354.335 259.254 354.76 259.621 355.267 259.828C355.915 259.952 356.586 259.851 357.169 259.544L363.887 256.894C364.681 256.58 365.475 256.272 366.264 255.944C367.098 255.55 368.005 255.333 368.927 255.308C370.42 255.365 371.67 256.409 372.773 257.411C378.226 262.369 383.442 267.859 390.136 270.955C393.009 272.195 395.982 273.19 399.022 273.928C409.126 276.658 419.372 279.151 429.827 279.626C435.736 279.906 441.822 279.579 447.665 280.234C451.127 280.565 454.517 281.42 457.721 282.77C460.675 277.609 463.48 272.365 466.136 267.037C459.742 265 453.604 262.241 447.489 259.487L433.507 253.209C418.074 246.257 402.431 239.19 389.575 228.211C386.918 225.951 384.374 223.515 381.379 221.715C374.722 217.716 366.388 217.584 359.399 220.642C358.289 221.127 357.217 221.692 356.19 222.332C348.987 226.858 351.373 240.757 351.568 248.227Z" fill="#F8BDC5"/>
    <path d="M467.739 290.714C467.713 291.399 467.75 292.084 467.848 292.761L483.034 297.111C488.154 298.578 494.226 299.87 498.329 296.484C498.514 296.327 498.69 296.171 498.852 296.009C500.91 294.01 501.89 291.104 502.769 288.35C503.676 285.5 504.586 282.651 505.499 279.802C506.497 276.668 507.51 273.438 507.272 270.157C507.283 269.425 507.033 268.714 506.568 268.148C505.969 267.555 505.042 267.484 504.191 267.493C498.961 267.588 494.915 271.382 490.18 273.609C489.077 274.088 488.008 274.64 486.98 275.262C485.411 276.326 487.489 276.397 490.346 278.268C492.134 279.441 495.324 282.822 494.582 284.831C493.598 287.514 490.108 288.093 487.246 288.207C483.218 288.365 479.184 288.445 475.146 288.445C472.766 288.445 470.388 288.419 468.014 288.369C467.843 289.139 467.75 289.925 467.739 290.714Z" fill="#322C35"/>
    <path opacity="0.1" d="M457.707 282.789L460.645 287.063L465.499 290.33C465.537 290.33 466.422 290.496 467.739 290.705C467.713 291.389 467.75 292.074 467.848 292.752L483.034 297.102C488.154 298.569 494.226 299.861 498.329 296.475C498.514 296.318 498.69 296.161 498.852 296C497.72 295.525 496.579 295.083 495.438 294.661C492.586 293.606 489.628 292.761 486.68 291.944C482.806 290.866 478.916 289.831 475.156 288.426L474.975 288.359C469.745 286.388 464.748 283.691 459.257 282.509L457.959 282.233L457.707 282.789Z" fill="black"/>
    <path d="M474.98 289.38C481.636 291.902 488.734 293.222 495.424 295.677C501.224 297.809 506.792 300.801 512.901 301.732C515.84 302.178 518.825 302.135 521.792 302.244C522.654 302.226 523.511 302.387 524.307 302.719C524.702 302.889 525.039 303.171 525.275 303.529C525.512 303.888 525.638 304.308 525.638 304.738C525.562 305.248 525.352 305.73 525.03 306.134C522.896 309.233 519.808 311.552 516.234 312.739C513.515 313.637 510.619 313.836 507.762 314.026C498.571 314.648 489.276 315.266 480.186 313.67C478.659 313.415 477.153 313.052 475.679 312.582C468.718 310.289 463.141 304.685 456.052 302.829C454.545 302.434 452.99 302.211 451.54 301.637C450.09 301.062 448.726 300.055 448.179 298.602C447.371 296.437 448.564 294.1 449.501 291.987C450.114 290.601 450.626 289.173 451.031 287.713C451.307 286.711 451.293 284.346 451.878 283.572C452.967 282.148 457.555 283.202 459.228 283.572C464.748 284.721 469.759 287.409 474.98 289.38Z" fill="#F8BDC5"/>
    <path d="M490.047 310.925C492.424 310.863 494.858 310.807 497.25 310.526C499.955 310.208 502.641 309.61 505.365 309.553C508.532 309.486 511.741 310.151 514.846 309.553C517.95 308.954 521.055 306.385 520.779 303.237C519.52 303.655 517.613 303.712 517.408 302.411C517.28 301.565 518.069 300.891 518.768 300.407L532.984 290.567C533.935 289.912 535.057 289.219 536.174 289.518C537.197 289.793 537.848 290.852 537.971 291.892C538.019 292.952 537.858 294.01 537.496 295.007L535.675 301.399C534.487 305.559 533.298 309.767 531.073 313.485C530.201 315.049 529.037 316.432 527.645 317.559C524.868 319.668 521.155 320.119 517.66 319.934C514.166 319.748 510.743 318.936 507.253 318.865C502.408 318.765 497.654 320.057 492.99 321.339C491.668 321.7 490.023 322.555 490.299 323.894C490.4 324.251 490.573 324.584 490.807 324.872C492.005 326.577 493.256 328.329 495.029 329.431C496.803 330.533 499.028 330.889 501.058 331.554C503.203 332.26 505.201 333.351 506.953 334.774C507.426 335.103 507.798 335.557 508.028 336.084C508.138 336.348 508.15 336.642 508.063 336.914C507.976 337.187 507.795 337.419 507.553 337.571L475.94 325.376C475.145 325.142 474.419 324.718 473.824 324.141C473.347 323.508 473.022 322.773 472.874 321.995L471.195 315.584C470.881 314.387 470.534 313.133 469.688 312.231C467.444 309.857 462.58 310.754 461.22 307.767C463.987 306.286 467.401 306.371 470.377 307.326C473.206 308.233 475.907 311.006 478.783 311.277C482.42 311.585 486.4 311.011 490.047 310.925Z" fill="#322C35"/>
    <path opacity="0.1" d="M243.542 138.745C257.761 138.745 269.288 127.232 269.288 113.03C269.288 98.8283 257.761 87.3155 243.542 87.3155C229.323 87.3155 217.797 98.8283 217.797 113.03C217.797 127.232 229.323 138.745 243.542 138.745Z" fill="black"/>
    <path d="M243.542 137.728C257.761 137.728 269.288 126.216 269.288 112.014C269.288 97.812 257.761 86.2993 243.542 86.2993C229.323 86.2993 217.797 97.812 217.797 112.014C217.797 126.216 229.323 137.728 243.542 137.728Z" fill="#F8BDC5"/>
    <path opacity="0.1" d="M219.965 220.243C220.336 221.245 220.707 222.247 221.092 223.249C238.709 214.14 253.032 199.755 262.056 182.11C262.627 180.99 263.188 179.793 263.131 178.534C263.069 177.11 262.223 175.851 261.41 174.678C261.02 174.113 260.63 173.544 260.235 172.983C255.794 175.68 250.793 179.745 248.397 184.456C247.37 186.474 247.008 188.706 245.81 190.682C244.251 193.26 242.087 195.431 239.948 197.544C235.13 202.293 230.307 207.051 225.48 211.819C223.578 213.675 221.677 215.618 220.635 218.054C220.347 218.762 220.123 219.495 219.965 220.243Z" fill="black"/>
    <path d="M218.353 251.029C218.353 251.186 218.382 251.343 218.401 251.504C218.41 251.8 218.483 252.092 218.614 252.358C218.745 252.624 218.932 252.859 219.161 253.047C219.601 253.272 220.097 253.361 220.588 253.304C221.168 253.304 221.753 253.271 222.333 253.247C237.142 252.677 251.758 249.687 265.598 244.395C268.546 243.26 271.489 242.021 274.009 240.121C273.79 240.051 273.585 239.945 273.4 239.808C272.416 239.114 272.017 237.68 271.774 236.431C270.842 231.613 270.018 226.776 269.302 221.919C268.923 219.824 268.773 217.693 268.855 215.565C268.998 213.628 269.506 211.69 269.226 209.767C269.064 208.632 268.627 207.559 268.418 206.443C267.467 201.31 271.185 196.599 272.621 191.579C273.389 188.802 273.467 185.88 272.848 183.066C272.228 180.252 270.929 177.632 269.064 175.434C267.747 173.909 265.969 172.551 263.958 172.584C262.646 172.622 261.433 173.259 260.311 173.938C258.925 174.77 257.587 175.68 256.303 176.663C253.123 179.104 250.099 182.148 248.397 185.472C247.37 187.491 247.008 189.723 245.81 191.698C244.251 194.277 242.087 196.447 239.948 198.56L225.685 212.635L225.48 212.835C223.578 214.692 221.677 216.634 220.635 219.07C220.056 220.624 219.684 222.248 219.528 223.899C218.306 232.884 217.692 241.983 218.353 251.029Z" fill="#322C35"/>
    <path opacity="0.1" d="M345.63 262.877C345.506 265.726 346.405 268.538 347.299 271.268C351.663 272.394 356.218 270.713 360.697 269.967C361.324 265.546 362.599 261.234 363.873 256.918C364.225 255.711 364.576 254.496 364.905 253.285C365.842 250.023 366.495 246.686 366.859 243.312C367.423 237.015 366.428 230.677 363.963 224.854C363.44 223.619 362.817 222.37 361.748 221.577C361.059 221.073 360.248 220.76 359.399 220.67C358.289 221.155 357.217 221.72 356.19 222.361C348.987 226.872 351.373 240.772 351.568 248.242C351.625 250.682 351.768 253.223 352.486 255.531L352.22 255.588C348.302 256.424 345.839 258.029 345.63 262.877Z" fill="black"/>
    <path d="M282.096 243.317C282.671 244.333 283.147 245.611 284.269 245.948C286.561 246.636 287.725 242.818 290.055 242.263C291.125 242.011 292.209 242.51 293.283 242.766C301.841 244.794 307.732 231.474 316.495 232.252C318.049 232.395 319.533 232.989 321.087 233.121C324.192 233.383 327.111 231.787 329.878 230.343C337.266 226.497 345.042 223.447 353.075 221.245C355.453 220.589 358.244 220.077 360.207 221.558C361.277 222.361 361.904 223.61 362.427 224.84C364.891 230.663 365.884 237.002 365.318 243.298C364.434 252.967 359.917 262.018 358.942 271.681C358.4 277.09 358.98 282.604 357.944 287.946C357.199 291.684 355.69 295.227 353.512 298.356C351.333 301.485 348.532 304.131 345.283 306.129C341.099 308.67 336.249 310.066 332.251 312.872C328.252 315.679 325.062 320.665 326.546 325.328C327.316 327.75 329.023 330.922 326.902 332.337C326.246 332.774 325.395 332.812 324.715 333.225C323.089 334.175 323.165 336.55 322.248 338.202C320.588 341.203 316.285 341.151 312.919 340.448C309.553 339.745 305.55 338.962 303.097 341.36C301.347 343.065 300.843 346.061 298.57 346.954C295.718 348.084 292.989 344.874 289.946 344.366C288.496 344.124 287.022 344.513 285.643 345.021C279.614 347.253 273.904 351.879 267.576 350.791C261.956 349.841 257.996 344.618 252.595 342.794C247.907 341.208 242.653 342.39 238.289 344.727C236.297 345.791 234.285 347.13 232.027 347.101C229.769 347.073 227.681 345.601 225.647 344.466C218.99 340.766 210.993 340.406 203.415 341.085C197.472 341.616 189.907 341.916 187.292 336.564C186.817 335.614 186.574 334.546 185.904 333.715C184.44 331.924 181.711 332.057 179.566 331.188C175.04 329.35 173.904 323.039 175.958 318.613C178.012 314.188 182.21 311.215 186.17 308.361C196.083 301.238 206.343 292.415 208.16 280.343C209.472 271.615 206.515 261.177 212.752 254.923C215.315 252.349 218.933 251.176 222.428 250.174C231.159 247.653 240.028 245.633 248.991 244.124C253.546 243.355 258.119 242.722 262.712 242.225C264.828 241.992 267.286 242.116 269.335 241.584C270.738 241.223 271.76 240.249 273.172 239.86C276.443 238.958 280.413 240.311 282.096 243.317Z" fill="#322C35"/>
    <path opacity="0.1" d="M190.749 331.207C191.053 332.081 191.966 332.561 192.812 332.931C201.002 336.47 210.199 336.928 218.7 334.218C223.017 332.826 227.163 330.542 229.997 327.009C235.612 319.991 234.87 310.075 235.46 301.109C236.577 284.014 243.514 267.521 244.389 250.583C244.479 248.712 244.498 246.831 244.431 244.946C244.431 244.409 244.389 243.877 244.351 243.336C244.108 239.48 243.466 235.634 243.647 231.778C243.838 229.06 244.24 226.36 244.85 223.705C248.102 207.891 251.924 192.208 256.317 176.654C253.122 179.104 250.099 182.148 248.397 185.472C247.37 187.491 247.008 189.723 245.81 191.698C244.251 194.277 242.087 196.447 239.948 198.56L225.685 212.635C224.654 225.134 223.629 237.639 222.608 250.151L222.352 253.261C222.228 254.776 222.1 256.295 221.981 257.806C221.092 268.647 220.198 279.507 220.393 290.382C220.55 298.977 221.016 308.65 215.125 314.924C212.79 317.412 209.691 319.036 206.662 320.622L193.435 327.46C191.947 328.249 190.193 329.616 190.749 331.207Z" fill="black"/>
    <path opacity="0.1" d="M222.813 222.337C231.937 217.384 240.183 210.967 247.222 203.342C249.584 193.37 252.18 183.456 255.01 173.6C255.571 171.649 256.142 169.702 256.598 167.726C253.717 163.566 250.834 159.405 247.95 155.242C245.824 152.179 243.647 148.954 242.915 145.345C237.005 146.984 231.856 154.947 229.868 159.981C227.434 166.154 226.864 172.883 226.326 179.498C225.692 187.347 225.049 195.195 224.396 203.043C223.864 209.476 223.336 215.907 222.813 222.337Z" fill="black"/>
    <path d="M258.628 160.456C258.552 164.939 257.264 169.298 256.032 173.605C251.335 189.979 247.27 206.516 243.837 223.216C243.221 225.87 242.818 228.57 242.629 231.288C242.449 235.149 243.105 238.991 243.338 242.847C244.579 262.35 235.731 281.117 234.442 300.62C233.853 309.581 234.594 319.501 228.979 326.515C226.127 330.053 222 332.337 217.683 333.729C209.182 336.44 199.985 335.985 191.795 332.447C190.948 332.076 190.036 331.587 189.731 330.718C189.175 329.132 190.929 327.76 192.422 326.986L205.645 320.109C208.678 318.533 211.773 316.909 214.112 314.411C219.998 308.138 219.532 298.469 219.38 289.874C219.18 278.995 220.074 268.134 220.963 257.293L225.409 203.043L227.339 179.494C227.881 172.883 228.452 166.154 230.886 159.981C233.011 154.605 238.759 145.863 245.178 145.108C253.931 144.063 258.747 152.953 258.628 160.456Z" fill="#F8BDC5"/>
    <path opacity="0.1" d="M292.694 265.688C293.83 268.69 294.372 271.886 295.442 274.906C297.945 281.838 303.093 287.5 309.762 290.653C303.074 288.869 297.192 284.864 293.085 279.299C288.977 273.733 286.887 266.937 287.16 260.028C287.221 258.504 287.331 255.982 288.51 254.952C289.57 255.987 289.67 258.527 290.222 259.957C290.973 261.899 291.957 263.741 292.694 265.688Z" fill="black"/>
    <path opacity="0.1" d="M275.369 273.856C278.977 276.858 281.754 280.747 284.026 284.85C290.364 296.341 292.969 309.515 291.481 322.55C287.264 314.216 286.252 304.59 282.234 296.152C279.015 289.361 274.004 283.601 269.987 277.247C269.25 276.074 263.887 269.886 265.322 268.994C267.353 267.726 273.933 272.66 275.369 273.856Z" fill="black"/>
    <path d="M199.055 106.595C197.676 108.02 196.074 109.274 195.033 110.907C193.506 113.315 193.378 116.221 193.288 118.98C193.174 122.523 193.093 126.217 194.771 129.427C195.684 131.156 197.067 132.661 197.942 134.404C198.817 136.147 199.093 138.35 197.809 139.879C196.825 141.052 195.151 141.57 194.006 142.605C191.248 145.084 192.399 149.254 193.868 152.521C196.216 157.744 198.95 162.883 199.882 168.443C200.814 174.004 199.63 180.206 195.128 184.09C194.438 184.689 193.63 185.292 193.449 186.142C193.366 186.783 193.5 187.433 193.83 187.989C195.798 192.073 200.424 194.989 205.34 195.245C206.289 195.34 207.248 195.208 208.136 194.861C208.921 194.46 209.612 193.898 210.166 193.213C212.22 190.971 214.112 188.417 214.445 185.52C214.968 180.823 211.359 176.692 209.353 172.333C208.424 170.332 207.823 168.194 207.575 166.002C207.271 163.277 207.679 160.214 209.924 158.366C212.985 155.85 217.735 156.738 221.81 157.317C225.106 157.786 228.439 157.945 231.765 157.792C233.605 157.706 235.65 157.421 236.781 156.106C238.593 154.002 236.834 150.925 234.751 149.04C232.669 147.155 230.04 145.208 230.035 142.534C230.035 140.35 231.823 138.564 232.997 136.655C234.057 134.925 234.641 132.945 234.689 130.917C234.736 128.889 234.246 126.884 233.268 125.106C232.56 123.833 231.575 122.537 231.785 121.122C232.065 119.246 234.233 118.197 236.064 117.271C240.658 114.958 244.576 111.498 247.436 107.227C250.322 102.839 251.639 96.7797 247.969 92.9095C245.397 90.1885 241.17 89.3812 237.247 88.9111C230.623 88.1086 223.949 87.7911 217.279 87.9613C213.138 88.0705 205.925 88.3175 205.036 92.8098C203.985 98.0144 203.12 102.44 199.055 106.595Z" fill="#322C35"/>
    <path opacity="0.1" d="M199.207 192.634C200.158 192.726 201.117 192.594 202.007 192.249C202.789 191.842 203.479 191.282 204.037 190.601C206.087 188.355 207.979 185.805 208.317 182.903C208.835 178.207 205.226 174.075 203.22 169.721C202.292 167.71 201.694 165.563 201.451 163.362C201.152 160.632 201.556 157.569 203.8 155.726C206.862 153.205 211.616 154.097 215.686 154.677C218.983 155.143 222.316 155.302 225.642 155.152C227.482 155.066 229.526 154.786 230.658 153.471C232.469 151.362 230.715 148.29 228.628 146.4C226.54 144.51 223.916 142.567 223.911 139.899C223.911 137.714 225.699 135.924 226.878 134.015C227.941 132.284 228.527 130.304 228.577 128.274C228.628 126.244 228.14 124.237 227.163 122.456C226.45 121.179 225.466 119.883 225.675 118.467C225.956 116.596 228.124 115.547 229.954 114.616C234.547 112.306 238.463 108.847 241.322 104.577C244.208 100.189 245.53 94.13 241.859 90.2597C241.574 89.9606 241.267 89.6829 240.942 89.4287C243.728 89.9986 246.376 90.9626 248.197 92.8858C251.867 96.7608 250.55 102.815 247.664 107.203C244.803 111.474 240.886 114.933 236.292 117.247C234.471 118.173 232.308 119.222 232.013 121.098C231.804 122.523 232.788 123.81 233.496 125.082C234.474 126.86 234.964 128.865 234.917 130.893C234.869 132.922 234.286 134.901 233.225 136.631C232.051 138.531 230.254 140.326 230.258 142.51C230.258 145.184 232.892 147.126 234.98 149.016C237.067 150.906 238.821 153.979 237.01 156.082C235.878 157.398 233.834 157.683 231.994 157.768C228.668 157.921 225.334 157.762 222.038 157.293C217.949 156.714 213.195 155.826 210.152 158.343C207.908 160.19 207.499 163.253 207.798 165.979C208.044 168.183 208.643 170.333 209.572 172.347C211.578 176.706 215.187 180.838 214.664 185.534C214.34 188.431 212.453 190.986 210.385 193.227C209.83 193.911 209.139 194.473 208.355 194.875C207.465 195.223 206.505 195.354 205.554 195.26C202.772 195.101 200.096 194.137 197.852 192.486C198.294 192.553 198.746 192.596 199.207 192.634Z" fill="black"/>
    <path d="M217.003 87.6479L217.06 87.7001C218.529 89.1675 220.521 89.9985 222.494 90.6539C228.242 92.5534 234.38 93.4129 239.929 95.773C240.575 96.0437 241.217 96.3382 241.831 96.6611C244.536 98.0335 246.994 99.8332 249.438 101.619C252.68 103.993 255.932 106.368 258.818 109.16C260.035 110.337 261.196 111.582 262.47 112.683C264.98 114.83 267.961 116.354 270.909 117.855L278.944 121.948C281.05 123.026 283.18 124.109 285.467 124.712C287.66 125.292 289.95 125.416 292.193 125.077C294.436 124.738 296.586 123.943 298.51 122.741C300.434 121.54 302.09 119.957 303.377 118.09C304.664 116.224 305.554 114.114 305.992 111.89C306.267 110.59 306.325 109.254 306.163 107.935C305.895 106.427 305.43 104.962 304.78 103.575C302.963 99.2729 300.857 94.961 297.463 91.7651C295.916 90.3789 294.259 89.121 292.508 88.0041L283 81.5648C281.573 80.615 280.114 79.613 278.468 79.0954C275.402 78.1456 272.288 78.9624 269.221 78.7297C269.007 78.7297 268.798 78.6965 268.589 78.668C265.888 78.3308 263.958 76.0229 261.234 75.3439C258.714 74.7218 256.085 74.7408 253.489 74.7645L228.238 74.9925C226.808 74.9468 225.378 75.084 223.982 75.4009C221.876 75.9802 220.093 77.3526 218.377 78.7012C218.168 78.8627 217.959 79.0289 217.749 79.2046C216.794 79.8925 216.025 80.8084 215.515 81.8687C214.721 83.8489 215.529 86.1426 217.003 87.6479Z" fill="#F57858"/>
    <path opacity="0.1" d="M217.141 93.0473C217.45 93.7026 218.211 93.997 218.909 94.1917C225.685 96.0912 233.016 94.6903 239.929 95.7778C240.934 95.9381 241.929 96.1553 242.91 96.4284C245.668 97.2214 248.249 98.5511 250.993 99.4059C255.747 100.873 260.787 100.868 265.731 100.674C266.366 100.698 266.997 100.569 267.571 100.299C267.843 100.145 268.052 99.9013 268.16 99.6093C268.269 99.3173 268.271 98.9963 268.166 98.703C268.997 93.3183 269.357 87.8714 269.24 82.4243C269.24 81.1991 269.174 79.9454 269.24 78.706C269.026 78.706 268.817 78.6727 268.608 78.6443C265.907 78.3071 263.977 75.9992 261.253 75.3201C258.733 74.698 256.104 74.717 253.508 74.7408L228.257 74.9687C226.827 74.923 225.397 75.0603 224.001 75.3771C221.895 75.9565 220.112 77.3289 218.396 78.6775C218.187 78.839 217.978 79.0052 217.768 79.1809C217.351 80.583 217.146 82.0396 217.16 83.5022C217.127 84.8889 217.103 86.2898 217.074 87.6764C217.046 89.063 217.017 90.4259 216.993 91.8031C216.947 92.2236 216.997 92.6492 217.141 93.0473Z" fill="black"/>
    <path d="M267.162 97.6915C267.986 92.3092 268.341 86.8658 268.223 81.4223C268.151 78.1741 267.975 74.6743 269.768 71.9675C270.243 71.2694 270.828 70.4241 270.424 69.6976C270.209 69.3982 269.938 69.1434 269.625 68.9473C268.265 67.8456 268.075 65.8796 267.985 64.132C267.871 61.8669 267.78 59.4972 268.75 57.4458C269.169 56.572 269.782 55.722 269.735 54.758C269.677 53.7132 268.855 52.8585 268.698 51.8232C268.427 50.0899 270.006 48.708 271.289 47.5113C273.753 45.1585 275.598 42.2343 276.658 38.9986C277.719 35.7628 277.964 32.3155 277.37 28.9627C276.776 25.7905 279.933 22.6373 280.665 19.4889C280.758 18.8679 280.926 18.2604 281.164 17.6796C282.144 15.7801 284.935 15.9131 286.637 14.6262C287.73 13.7999 288.538 12.3088 289.908 12.3183C290.434 12.3711 290.945 12.5225 291.415 12.7646C293.027 13.4255 294.786 13.6467 296.512 13.4057C296.659 17.2475 296.825 21.1795 298.252 24.7505C299.735 28.4688 302.474 31.5223 304.799 34.7799C307.124 38.0376 309.149 41.8366 308.835 45.8303C310.029 46.1817 311.094 44.7523 310.979 43.5176C310.865 42.283 310.029 41.2477 309.444 40.165C308.279 38.0945 307.851 35.7012 307.39 33.3695C305.964 26.1514 304.028 18.9713 300.762 12.3753C299.578 10.0009 298.214 7.65023 297.558 5.06216C297.211 3.68501 296.697 1.89473 295.275 1.8235C294.892 1.83381 294.513 1.89939 294.149 2.0182C290.982 2.8065 287.778 1.18242 284.559 0.6743C280.323 0.00947353 276.053 1.28689 271.96 2.57381C270.357 3.04868 268.717 3.58529 267.419 4.64427C265.389 6.30633 264.566 9.01313 262.841 11.0029C261.367 12.7219 259.299 13.8521 257.872 15.6139C256.379 17.4469 255.69 19.8166 254.268 21.7066C251.416 25.5056 245.972 26.8827 243.519 30.9667C241.065 35.0506 238.659 39.0775 236.572 43.3134C234.485 47.5493 230.8 51.0112 230.163 55.6317C229.902 57.5312 229.983 59.8676 228.328 60.8316C227.667 61.2163 226.83 61.3065 226.26 61.7814C225.494 62.47 225.513 63.6429 225.49 64.6734C225.418 67.634 224.515 70.515 222.884 72.9885C222.533 73.5841 222.054 74.0949 221.482 74.4843C220.745 74.9307 219.846 75.0162 219.066 75.3771C216.599 76.5215 216.214 79.7934 216.147 82.5002L215.981 90.8058C215.94 91.2181 215.996 91.6341 216.142 92.0215C216.451 92.6768 217.212 92.9713 217.911 93.1659C225.67 95.3551 234.162 93.1659 241.907 95.4074C244.669 96.2004 247.251 97.5301 249.989 98.3801C254.744 99.8475 259.783 99.8427 264.728 99.648C265.364 99.674 265.997 99.5453 266.573 99.2729C266.841 99.1201 267.047 98.8781 267.155 98.5891C267.263 98.3 267.265 97.9823 267.162 97.6915Z" fill="#F57858"/>
    <path opacity="0.1" d="M243.804 52.6685C242.701 53.0959 241.721 53.8272 240.585 54.1501C239.853 54.3591 239.078 54.3923 238.336 54.5775C236.675 55.077 235.24 56.138 234.276 57.5787C233.327 59.0139 232.55 60.5551 231.96 62.1708C233.87 61.3787 235.904 60.9255 237.97 60.8317C239.1 60.8472 240.229 60.7694 241.346 60.599C242.717 60.2318 244.007 59.6118 245.149 58.7707C246.414 57.9302 250.455 55.8075 250.151 54.0552C249.804 51.8043 245.23 52.1129 243.804 52.6685Z" fill="black"/>
    <path opacity="0.1" d="M235.973 68.7288C234.879 68.8722 233.816 69.193 232.826 69.6786C230.819 70.7803 229.683 72.941 228.656 74.9877C232.498 72.5932 236.812 71.0529 241.303 70.4716C244.427 70.068 248.435 70.4716 251.287 68.9947C250.065 66.4304 238.479 68.2777 235.973 68.7288Z" fill="black"/>
    <path opacity="0.1" d="M267.101 10.661C269.097 10.9222 270.486 12.7932 271.261 14.6499C272.036 16.5067 272.473 18.5582 273.733 20.13C274.267 18.5461 274.255 16.8295 273.7 15.253C273.583 15.0109 273.534 14.7419 273.557 14.4742C273.623 14.2382 273.759 14.0278 273.947 13.8711C275.05 12.7979 281.269 10.5755 277.237 10.3428C273.89 10.1434 270.586 11.1121 267.101 10.661Z" fill="black"/>
    <path d="M191.091 90.5446C193.131 86.2707 196.982 83.0891 201.213 80.9616C205.445 78.8342 210.08 77.6755 214.673 76.5215C215.875 76.1653 217.119 75.9673 218.372 75.9327C220.445 75.9659 222.399 76.8824 224.173 77.9604C226.379 79.3557 228.502 80.8795 230.529 82.524L236.235 86.9593C241.826 91.3092 247.531 95.7872 251.287 101.79C246.961 102.051 242.934 99.7809 238.726 98.722C234.518 97.663 230.239 97.815 225.96 97.9622L215.5 98.3183C213.222 98.3311 210.949 98.5376 208.706 98.9357C207.16 99.2896 205.636 99.7336 204.142 100.265L196.416 102.844C193.245 103.903 190.711 104.743 189.855 100.906C189.117 97.4106 189.551 93.7694 191.091 90.5446Z" fill="#F57858"/>
    <path opacity="0.1" d="M191.091 90.5446C193.131 86.2707 196.982 83.0891 201.213 80.9616C205.445 78.8342 210.08 77.6755 214.673 76.5215C215.875 76.1653 217.119 75.9673 218.372 75.9327C220.445 75.9659 222.399 76.8824 224.173 77.9604C226.379 79.3557 228.502 80.8795 230.529 82.524L236.235 86.9593C241.826 91.3092 247.531 95.7872 251.287 101.79C246.961 102.051 242.934 99.7809 238.726 98.722C234.518 97.663 230.239 97.815 225.96 97.9622L215.5 98.3183C213.222 98.3311 210.949 98.5376 208.706 98.9357C207.16 99.2896 205.636 99.7336 204.142 100.265L196.416 102.844C193.245 103.903 190.711 104.743 189.855 100.906C189.117 97.4106 189.551 93.7694 191.091 90.5446Z" fill="black"/>
    <path d="M474.062 2.61659C474.062 2.61659 431.272 0.0380092 436.307 29.998C436.307 29.998 435.309 35.2928 440.111 37.6957C440.111 37.6957 440.187 35.4733 444.499 36.2283C446.035 36.4847 447.595 36.5596 449.149 36.4515C451.256 36.3134 453.26 35.4894 454.854 34.1056C454.854 34.1056 466.888 29.1432 471.566 9.50229C471.566 9.50229 475.027 5.2284 474.894 4.11719L467.672 7.19914C467.672 7.19914 470.14 12.4228 468.2 16.7252C468.2 16.7252 467.967 7.38909 466.579 7.60753C466.293 7.65027 462.823 9.41206 462.823 9.41206C462.823 9.41206 467.068 18.4775 463.864 25.083C463.864 25.083 465.081 13.9139 461.487 10.0864L456.404 13.0496C456.404 13.0496 461.368 22.4142 458.002 30.0549C458.002 30.0549 458.862 18.335 455.334 13.7714L450.713 17.3662C450.713 17.3662 455.377 26.5693 452.524 32.9089C452.524 32.9089 452.154 19.2657 449.705 18.2353C449.705 18.2353 445.673 21.7826 445.06 23.2452C445.06 23.2452 448.25 29.941 446.272 33.4788C446.272 33.4788 445.055 24.3897 444.061 24.3469C444.061 24.3469 440.044 30.3684 439.626 34.495C439.626 34.495 439.801 28.3549 443.087 23.7723C443.087 23.7723 439.202 24.4324 436.939 26.9492C436.939 26.9492 437.562 22.6754 444.071 22.3192C444.071 22.3192 447.399 17.7556 448.279 17.4755C448.279 17.4755 441.794 16.9341 437.866 18.6769C437.866 18.6769 441.323 14.6594 449.463 16.483L454.013 12.7742C454.013 12.7742 445.483 11.6107 441.865 12.8977C441.865 12.8977 446.025 9.34558 455.239 11.9479L460.189 8.98942C460.189 8.98942 452.919 7.42233 448.583 7.98743C448.583 7.98743 453.157 5.52758 461.643 8.19638L465.186 6.60554C465.186 6.60554 459.856 5.56082 458.292 5.39461C456.727 5.2284 456.651 4.80102 456.651 4.80102C460.018 4.24397 463.474 4.62857 466.636 5.91222C466.636 5.91222 474.19 3.09146 474.062 2.61659Z" fill="#F57858"/>
    <path d="M425.823 0.0284797C425.823 0.0284797 406.487 -1.15396 408.783 12.399C408.783 12.399 408.308 14.7734 410.5 15.8751C410.5 15.8751 410.538 14.8731 412.487 15.215C413.181 15.3303 413.887 15.3638 414.589 15.3147C415.537 15.2487 416.438 14.8771 417.156 14.2558C417.156 14.2558 422.571 12.0144 424.687 3.11993C424.687 3.11993 426.251 1.18243 426.189 0.683811L422.928 2.0752C422.928 2.0752 424.04 4.44958 423.166 6.38233C423.166 6.38233 423.056 2.16068 422.429 2.2604C422.305 2.2604 420.736 3.07719 420.736 3.07719C420.736 3.07719 422.638 7.17537 421.212 10.1481C421.212 10.1481 421.758 5.10491 420.142 3.37161L417.845 4.71076C417.845 4.71076 420.085 8.94191 418.563 12.3943C418.563 12.3943 418.953 7.09939 417.36 5.03843L415.278 6.6625C415.278 6.6625 417.384 10.8319 416.101 13.6954C416.101 13.6954 415.934 7.52203 414.826 7.04715C414.826 7.04715 413.005 8.64748 412.73 9.30756C412.73 9.30756 414.156 12.3373 413.276 13.9329C413.276 13.9329 412.725 9.82518 412.278 9.80618C412.278 9.80618 410.462 12.5272 410.272 14.3935C410.272 14.3935 410.352 11.6202 411.836 9.545C410.791 9.73845 409.825 10.2338 409.059 10.9696C409.059 10.9696 409.34 9.07013 412.283 8.87543C412.283 8.87543 413.785 6.81446 414.184 6.68625C414.184 6.68625 411.256 6.44406 409.482 7.2276C409.482 7.2276 411.047 5.41358 414.712 6.23986L416.771 4.56355C416.771 4.56355 412.915 4.03644 411.279 4.62054C411.279 4.62054 413.181 3.01545 417.322 4.18365L419.562 2.8445C419.562 2.8445 416.272 2.13693 414.332 2.36962C414.332 2.36962 416.4 1.25841 420.237 2.4646L421.834 1.74753C421.834 1.74753 419.429 1.27266 418.72 1.20142C418.012 1.13019 417.979 0.930745 417.979 0.930745C419.503 0.676986 421.069 0.851252 422.5 1.43411C422.5 1.43411 425.899 0.242174 425.823 0.0284797Z" fill="#F57858"/>
    </svg>
